# xmcd
#
# Track frame offsets: 
#        150
#        16146
#        25767
#        35144
#        47754
#        62194
#        71391
#        86094
#        95947
#        109999
#        121431
#        131046
#        144571
#        158419
#        168464
#        181683
#        192027
#        202790
#        217789
#        232968
#
# Disc length: 3217 seconds
#
# Revision: 4
# Processed by: cddbd v1.5.2PL0 Copyright (c) Steve Scherf et al.
# Submitted via: ExactAudioCopy v1.0b1
#
DISCID=0f0c8f14
DTITLE=The Country Gentlemen - Sugar Hill Collection
DYEAR=1995
DGENRE=Bluegrass
TTITLE0=Come And Sit By The River
TTITLE1=Meet Me Over on the Other Side
TTITLE2=The Likes Of You
TTITLE3=Darby's Castle
TTITLE4=Sit Down Young Stranger
TTITLE5=It's Just Like Heaven
TTITLE6=For The First Time
TTITLE7=South Elm Street
TTITLE8=Blue Ridge Mountains Turning Green
TTITLE9=The Lonely Dancer
TTITLE10=Riverboat Fantasy
TTITLE11=God's Coloring Book
TTITLE12=River Bottom
TTITLE13=Coal, Black Gold
TTITLE14=The In Crowd
TTITLE15=Electricity
TTITLE16=I'm Lonesome Without You
TTITLE17=Loving Her Was Easier Than Anything I'll Ever Do Again
TTITLE18=Things In Life
TTITLE19=Honey Don't
EXTD=YEAR: 1995
EXTT0=The Country Gentlemen:  Charlie Waller, Bill Yates, Doyle Lawson
EXTT0=, James Bailey, Rick Allred, Kent Dowell\nGuests: Mike Auldridge
EXTT0=, Ronnie Bucke, Chuck and The Country Cats, Ed Ferris, Spider Gi
EXTT0=lliam
EXTT1=
EXTT2=
EXTT3=
EXTT4=
EXTT5=
EXTT6=
EXTT7=
EXTT8=
EXTT9=
EXTT10=
EXTT11=
EXTT12=
EXTT13=
EXTT14=
EXTT15=
EXTT16=
EXTT17=
EXTT18=
EXTT19=
PLAYORDER=
